<?xml version="1.0" encoding="UTF-8" standalone="no"?>
<svg
   viewBox="0 0 24 24"
   fill="none"
   stroke="#999"
   version="1.1"
   id="svg7"
   xmlns="http://www.w3.org/2000/svg">
  <defs
     id="defs7" />
  <!-- Step 1 box -->
  <rect
     x="0.98013592"
     y="3"
     width="5"
     height="5"
     stroke-width="1.5"
     stroke-linecap="round"
     stroke-linejoin="round"
     fill="#999999"
     id="rect1" />
  <!-- Arrow to step 2 -->
  <line
     x1="5.9801269"
     y1="5.5"
     x2="8.9801636"
     y2="5.5"
     stroke-width="1.5"
     id="line1" />
  <path
     d="m 8.980135,5.5 -1.5,-1 1.5,1 -1.5,1 z"
     fill="#999999"
     stroke="none"
     id="path1" />
  <!-- Step 2 box -->
  <rect
     x="9.4801626"
     y="3"
     width="5"
     height="5"
     stroke-width="1.5"
     stroke-linecap="round"
     stroke-linejoin="round"
     fill="#999999"
     id="rect2" />
  <!-- Arrow to step 3 -->
  <line
     x1="14.480164"
     y1="5.5"
     x2="17.480164"
     y2="5.5"
     stroke-width="1.5"
     id="line2" />
  <path
     d="m 17.480135,5.5 -1.5,-1 1.5,1 -1.5,1 z"
     fill="#999999"
     stroke="none"
     id="path2" />
  <!-- Step 3 box -->
  <rect
     x="17.980164"
     y="3"
     width="5"
     height="5"
     stroke-width="1.5"
     stroke-linecap="round"
     stroke-linejoin="round"
     fill="#999999"
     id="rect3" />
  <!-- Gear/cog symbol below representing automation -->
  <circle
     cx="12"
     cy="16"
     r="4"
     stroke-width="1.5"
     fill="none"
     id="circle3" />
  <circle
     cx="12"
     cy="16"
     r="2"
     stroke-width="1.5"
     fill="#999"
     id="circle4" />
  <!-- Gear teeth -->
  <rect
     x="11.3"
     y="11"
     width="1.4"
     height="1.5"
     fill="#999999"
     stroke="none"
     id="rect4" />
  <rect
     x="11.3"
     y="19.6"
     width="1.4"
     height="1.5"
     fill="#999999"
     stroke="none"
     id="rect5" />
  <rect
     x="15.6"
     y="15.3"
     width="1.5"
     height="1.4"
     fill="#999999"
     stroke="none"
     id="rect6" />
  <rect
     x="6.8000002"
     y="15.3"
     width="1.5"
     height="1.4"
     fill="#999999"
     stroke="none"
     id="rect7" />
  <!-- Connecting line from process to automation -->
  <line
     x1="11.980164"
     y1="8"
     x2="11.980164"
     y2="12"
     stroke-width="1.5"
     stroke-dasharray="2, 2"
     id="line7" />
  <rect
     x="18.955101"
     y="-2.3041019"
     width="1.5"
     height="1.4"
     fill="#999999"
     stroke="none"
     id="rect7-9"
     transform="rotate(45)" />
  <rect
     x="2.0550141"
     y="14.662673"
     width="1.5"
     height="1.4"
     fill="#999999"
     stroke="none"
     id="rect7-9-6"
     transform="matrix(-0.70710678,0.70710678,0.70710678,0.70710678,0,0)" />
  <rect
     x="19.14097"
     y="6.6145749"
     width="1.5"
     height="1.4"
     fill="#999999"
     stroke="none"
     id="rect7-9-3"
     transform="rotate(45)" />
  <rect
     x="2.2142289"
     y="23.644339"
     width="1.5"
     height="1.4"
     fill="#999999"
     stroke="none"
     id="rect7-9-2"
     transform="matrix(-0.70710678,0.70710678,0.70710678,0.70710678,0,0)" />
</svg>
